HIERARCHY
ROOT Hips
{
  OFFSET 0.0000 0.0000 0.0000
  CHANNELS 6 Xposition Yposition Zposition Zrotation Xrotation Yrotation
  JOINT Chest
  {
    OFFSET -0.1728 10.2870 0.1254
    CHANNELS 3 Zrotation Xrotation Yrotation
    JOINT Chest2
    {
      OFFSET 0.3229 15.8173 -2.6440
      CHANNELS 3 Zrotation Xrotation Yrotation
      JOINT LeftCollar
      {
        OFFSET -0.0683 16.8828 0.2989
        CHANNELS 3 Zrotation Xrotation Yrotation
        JOINT LeftShoulder
        {
          OFFSET 16.0110 -3.0750 2.0528
          CHANNELS 3 Zrotation Xrotation Yrotation
          JOINT LeftElbow
          {
            OFFSET 2.6153 -25.4187 1.7231
            CHANNELS 3 Zrotation Xrotation Yrotation
            JOINT LeftWrist
            {
              OFFSET 2.3595 -22.4741 1.0488
              CHANNELS 3 Zrotation Xrotation Yrotation
              End Site
              {
                  OFFSET 1.4871 -13.9919 1.1523
              }
            }
          }
        }
      }
      JOINT RightCollar
      {
        OFFSET -0.0683 16.8828 0.2989
        CHANNELS 3 Zrotation Xrotation Yrotation
        JOINT RightShoulder
        {
          OFFSET -16.3743 -2.4390 2.0841
          CHANNELS 3 Zrotation Xrotation Yrotation
          JOINT RightElbow
          {
            OFFSET -2.6865 -25.0857 1.2959
            CHANNELS 3 Zrotation Xrotation Yrotation
            JOINT RightWrist
            {
              OFFSET -2.3810 -22.8348 1.0329
              CHANNELS 3 Zrotation Xrotation Yrotation
              End Site
              {
                  OFFSET -1.4652 -14.7234 1.0705
              }
            }
          }
        }
      }
      JOINT Neck
      {
        OFFSET -0.0683 16.8828 0.2989
        CHANNELS 3 Zrotation Xrotation Yrotation
        JOINT Head
        {
          OFFSET 0.1300 11.4121 4.7143
          CHANNELS 3 Zrotation Xrotation Yrotation
          End Site
          {
              OFFSET 0.0452 18.0438 0.3379
          }
        }
      }
    }
  }
  JOINT LeftHip
  {
    OFFSET 9.3186 -0.0408 3.5432
    CHANNELS 3 Zrotation Xrotation Yrotation
    JOINT LeftKnee
    {
      OFFSET -0.5435 -48.8357 0.3144
      CHANNELS 3 Zrotation Xrotation Yrotation
      JOINT LeftAnkle
      {
        OFFSET 0.2027 -38.4920 -4.2946
        CHANNELS 3 Zrotation Xrotation Yrotation
        End Site
        {
            OFFSET 1.1879 -7.4484 17.8063
        }
      }
    }
  }
  JOINT RightHip
  {
    OFFSET -10.0712 -0.0749 3.1483
    CHANNELS 3 Zrotation Xrotation Yrotation
    JOINT RightKnee
    {
      OFFSET 0.3157 -48.5179 0.1055
      CHANNELS 3 Zrotation Xrotation Yrotation
      JOINT RightAnkle
      {
        OFFSET -1.1248 -38.4399 -3.4305
        CHANNELS 3 Zrotation Xrotation Yrotation
        End Site
        {
            OFFSET -1.3336 -7.3741 17.3830
        }
      }
    }
  }
}
MOTION
Frames:	13
Frame Time:	0.033333
201.9579 96.2689 382.1632 7.44 7.99 142.70 1.83 14.89 -1.97 1.85 14.86 -1.95 -0.18 -0.70 0.26 17.49 -14.60 -54.95 9.34 -21.24 -2.22 -8.45 1.35 -9.95 -0.01 -0.80 0.01 -20.99 -16.13 69.15 -13.88 -14.45 3.32 3.78 -1.67 -8.34 -0.87 -12.26 6.42 -1.45 -4.98 6.35 -0.78 15.04 -7.13 0.11 -0.83 -0.04 0.25 -2.13 7.15 2.63 10.30 -0.02 -2.02 7.79 0.09 1.21 -6.90 9.94 
201.9919 96.2696 382.1201 7.57 8.12 142.87 1.88 15.02 -2.05 1.91 14.99 -2.02 -0.18 -0.70 0.26 17.42 -14.62 -54.77 9.34 -21.30 -2.22 -8.50 1.23 -9.93 -0.01 -0.80 0.01 -20.90 -16.25 68.82 -13.88 -14.55 3.32 3.88 -1.55 -8.29 -0.81 -12.56 6.67 -1.42 -5.28 6.59 -0.69 15.36 -6.48 0.11 -1.08 -0.05 0.24 -1.92 6.47 2.53 10.92 -0.17 -1.63 6.95 0.09 0.97 -6.49 9.86 
202.0179 96.2638 382.0812 7.66 8.19 142.96 1.90 15.06 -2.07 1.93 15.03 -2.05 -0.18 -0.70 0.26 17.39 -14.65 -54.79 9.34 -21.31 -2.22 -8.47 1.20 -9.96 -0.01 -0.80 0.01 -20.92 -16.34 68.81 -13.88 -14.57 3.32 3.93 -1.54 -8.36 -0.78 -12.85 6.93 -1.43 -5.58 6.83 -0.63 15.55 -6.12 0.11 -1.17 -0.05 0.24 -1.85 6.09 2.48 11.23 -0.24 -1.40 6.56 0.08 0.84 -6.32 9.81 
202.0375 96.2545 382.0532 7.68 8.21 143.01 1.91 15.07 -2.07 1.94 15.04 -2.05 -0.18 -0.70 0.26 17.38 -14.68 -54.88 9.34 -21.31 -2.22 -8.40 1.21 -10.08 -0.01 -0.80 0.01 -21.00 -16.39 68.92 -13.88 -14.57 3.32 3.97 -1.58 -8.41 -0.75 -13.12 7.13 -1.42 -5.86 7.03 -0.61 15.60 -6.04 0.11 -1.11 -0.05 0.24 -1.89 6.01 2.46 11.30 -0.25 -1.30 6.49 0.07 0.78 -6.31 9.77 
202.0530 96.2447 382.0385 7.64 8.19 143.08 1.91 15.06 -2.04 1.94 15.03 -2.02 -0.18 -0.70 0.26 17.38 -14.71 -54.98 9.34 -21.30 -2.22 -8.37 1.20 -10.28 -0.01 -0.80 0.01 -21.07 -16.42 69.02 -13.88 -14.58 3.32 4.00 -1.66 -8.36 -0.70 -13.37 7.20 -1.39 -6.10 7.10 -0.63 15.51 -6.20 0.11 -0.95 -0.04 0.24 -2.01 6.13 2.44 11.24 -0.20 -1.25 6.60 0.06 0.75 -6.39 9.71 
202.0676 96.2362 382.0325 7.58 8.15 143.16 1.92 15.04 -2.00 1.95 15.01 -1.98 -0.18 -0.70 0.26 17.39 -14.73 -54.99 9.34 -21.28 -2.22 -8.42 1.19 -10.54 -0.01 -0.80 0.01 -21.14 -16.43 69.09 -13.88 -14.59 3.32 4.00 -1.77 -8.19 -0.63 -13.58 7.11 -1.31 -6.31 7.00 -0.66 15.35 -6.49 0.11 -0.77 -0.03 0.24 -2.15 6.38 2.42 11.15 -0.14 -1.23 6.73 0.05 0.73 -6.49 9.62 
202.0847 96.2300 382.0249 7.51 8.11 143.26 1.92 15.01 -1.95 1.95 14.99 -1.93 -0.18 -0.70 0.26 17.42 -14.77 -54.99 9.34 -21.26 -2.22 -8.57 1.11 -10.72 -0.01 -0.80 0.01 -21.21 -16.42 69.15 -13.88 -14.62 3.32 3.98 -1.88 -8.05 -0.55 -13.75 6.92 -1.20 -6.48 6.81 -0.69 15.18 -6.78 0.11 -0.62 -0.03 0.24 -2.29 6.63 2.40 11.07 -0.10 -1.21 6.85 0.04 0.72 -6.58 9.52 
202.1064 96.2262 382.0046 7.44 8.06 143.38 1.91 14.99 -1.91 1.94 14.96 -1.89 -0.18 -0.70 0.26 17.47 -14.80 -54.86 9.34 -21.24 -2.22 -8.78 0.99 -10.75 -0.01 -0.80 0.01 -21.29 -16.39 69.23 -13.87 -14.69 3.32 3.90 -1.97 -8.01 -0.47 -13.92 6.72 -1.10 -6.65 6.62 -0.72 15.06 -7.04 0.11 -0.50 -0.02 0.24 -2.34 6.79 2.40 11.03 -0.08 -1.20 6.92 0.03 0.70 -6.65 9.40 
202.1333 96.2247 381.9658 7.38 8.02 143.52 1.90 14.96 -1.87 1.93 14.93 -1.85 -0.18 -0.70 0.26 17.52 -14.82 -54.77 9.34 -21.22 -2.22 -8.99 0.80 -10.54 -0.01 -0.80 0.01 -21.42 -16.34 69.41 -13.87 -14.76 3.32 3.74 -2.04 -8.19 -0.39 -14.09 6.55 -1.00 -6.81 6.44 -0.74 14.97 -7.25 0.11 -0.50 -0.02 0.24 -2.31 6.85 2.40 10.99 -0.05 -1.18 6.92 0.02 0.68 -6.68 9.26 
202.1643 96.2251 381.9112 7.33 7.99 143.66 1.88 14.92 -1.84 1.91 14.89 -1.82 -0.18 -0.70 0.26 17.58 -14.82 -54.68 9.34 -21.23 -2.22 -9.14 0.55 -10.18 -0.01 -0.80 0.01 -21.57 -16.31 69.62 -13.87 -14.83 3.32 3.61 -2.02 -8.45 -0.34 -14.25 6.41 -0.93 -6.97 6.31 -0.73 15.00 -7.36 0.11 -0.64 -0.03 0.24 -2.21 6.79 2.41 11.04 0.02 -1.15 6.81 0.01 0.65 -6.68 9.10 
202.1983 96.2273 381.8498 7.30 7.97 143.78 1.87 14.86 -1.81 1.89 14.83 -1.78 -0.18 -0.70 0.26 17.67 -14.80 -54.75 9.34 -21.30 -2.22 -9.16 0.31 -9.77 -0.01 -0.80 0.01 -21.73 -16.28 69.85 -13.86 -14.90 3.32 3.48 -1.99 -8.75 -0.30 -14.41 6.31 -0.87 -7.13 6.21 -0.69 15.12 -7.35 0.11 -0.90 -0.04 0.24 -2.07 6.67 2.42 11.13 0.11 -1.12 6.58 0.00 0.62 -6.63 8.94 
202.2349 96.2316 381.7917 7.28 7.96 143.87 1.87 14.80 -1.77 1.89 14.77 -1.75 -0.18 -0.70 0.26 17.82 -14.78 -54.92 9.34 -21.38 -2.23 -9.06 0.12 -9.42 -0.01 -0.80 0.01 -21.85 -16.30 69.98 -13.86 -14.97 3.32 3.48 -1.88 -8.89 -0.27 -14.56 6.23 -0.84 -7.28 6.13 -0.63 15.29 -7.26 0.11 -1.18 -0.05 0.24 -1.94 6.53 2.44 11.29 0.23 -1.07 6.31 -0.01 0.58 -6.55 8.76 
202.2748 96.2380 381.7421 7.28 7.95 143.92 1.88 14.75 -1.74 1.91 14.72 -1.72 -0.18 -0.70 0.26 18.01 -14.76 -55.26 9.34 -21.48 -2.23 -8.88 0.03 -9.10 -0.01 -0.80 0.01 -21.96 -16.35 69.99 -13.86 -15.05 3.32 3.51 -1.81 -8.97 -0.26 -14.70 6.16 -0.82 -7.42 6.06 -0.58 15.47 -7.13 0.10 -1.45 -0.06 0.24 -1.83 6.39 2.46 11.46 0.37 -1.02 6.03 -0.02 0.53 -6.45 8.59 
